<?xml version="1.0" encoding="UTF-8" standalone="no"?>
<!-- Created with Inkscape (http://www.inkscape.org/) -->

<svg
   xmlns:dc="http://purl.org/dc/elements/1.1/"
   xmlns:cc="http://creativecommons.org/ns#"
   xmlns:rdf="http://www.w3.org/1999/02/22-rdf-syntax-ns#"
   xmlns:svg="http://www.w3.org/2000/svg"
   xmlns="http://www.w3.org/2000/svg"
   xmlns:xlink="http://www.w3.org/1999/xlink"
   xmlns:sodipodi="http://sodipodi.sourceforge.net/DTD/sodipodi-0.dtd"
   xmlns:inkscape="http://www.inkscape.org/namespaces/inkscape"
   sodipodi:docname="thronoscope.svg"
   id="svg8"
   version="1.1"
   viewBox="0 0 57.406776 14.098229"
   height="14.098229mm"
   width="57.406776mm"
   inkscape:version="0.92.3 (2405546, 2018-03-11)"
   inkscape:export-filename="thronoscope.png"
   inkscape:export-xdpi="96.050003"
   inkscape:export-ydpi="96.050003">
  <sodipodi:namedview
     inkscape:window-maximized="1"
     inkscape:window-y="-8"
     inkscape:window-x="72"
     inkscape:window-height="1057"
     inkscape:window-width="1840"
     showgrid="false"
     inkscape:current-layer="layer1"
     inkscape:document-units="mm"
     inkscape:cy="19.513026"
     inkscape:cx="245.57807"
     inkscape:zoom="1"
     inkscape:pageshadow="2"
     inkscape:pageopacity="0.0"
     borderopacity="1.0"
     bordercolor="#666666"
     pagecolor="#ffffff"
     id="base"
     inkscape:snap-global="false"
     fit-margin-top="0"
     fit-margin-left="0"
     fit-margin-right="0"
     fit-margin-bottom="0" />
  <defs
     id="defs2">
    <inkscape:path-effect
       effect="envelope"
       id="path-effect4862"
       is_visible="true"
       yy="true"
       xx="false"
       bendpath1="m 227.14062,576.41602 c 106.70618,-51.78835 215.43135,-76.27457 343.71876,0"
       bendpath2="m 583.85938,576.41602 -16.5,54.20703"
       bendpath3="m 230.64062,630.62305 c 110.49304,-4.38169 222.41101,-6.26622 336.71876,0"
       bendpath4="m 216.64062,576.41602 14,54.20703"
       bendpath1-nodetypes="cc"
       bendpath2-nodetypes="cc"
       bendpath4-nodetypes="cc"
       bendpath3-nodetypes="cc" />
    <inkscape:path-effect
       effect="bounding_box"
       id="path-effect4850"
       is_visible="true"
       linkedpath=""
       visualbounds="false" />
    <inkscape:path-effect
       effect="bend_path"
       id="path-effect1145"
       is_visible="true"
       bendpath="M 230.64062,603.51954 H 567.35938"
       prop_scale="1"
       scale_y_rel="false"
       vertical="false" />
  </defs>
  <metadata
     id="metadata5">
    <rdf:RDF>
      <cc:Work
         rdf:about="">
        <dc:format>image/svg+xml</dc:format>
        <dc:type
           rdf:resource="http://purl.org/dc/dcmitype/StillImage" />
        <dc:title></dc:title>
      </cc:Work>
    </rdf:RDF>
  </metadata>
  <g
     inkscape:label="Layer 1"
     inkscape:groupmode="layer"
     id="layer1"
     transform="translate(-80.114729,-161.85485)">
    <image
       sodipodi:absref="D:\Unity projects\Big Fat Phoenix\Reignslike\Assets\Sprites\Fantasy Wooden GUI  Free\wooden-frame-empty.png"
       xlink:href="wooden-frame-empty.png"
       y="181.86845"
       x="113.05269"
       id="image5050"
       preserveAspectRatio="none"
       height="33.866665"
       width="33.866665" />
    <image
       sodipodi:absref="D:\Unity projects\Big Fat Phoenix\Reignslike\Assets\Sprites\Fantasy Wooden GUI  Free\wooden-frame-empty.png"
       xlink:href="wooden-frame-empty.png"
       width="33.866665"
       height="33.866665"
       preserveAspectRatio="none"
       id="image1096"
       x="70.71936"
       y="181.86845" />
    <text
       xml:space="preserve"
       style="font-style:normal;font-weight:normal;font-size:16.93333244px;line-height:125%;font-family:sans-serif;text-align:center;letter-spacing:0px;word-spacing:0px;text-anchor:middle;fill:#000000;fill-opacity:1;stroke:#000000;stroke-width:0.5;stroke-linecap:butt;stroke-linejoin:miter;stroke-opacity:1"
       x="228.0708"
       y="150.42084"
       id="text1101"><tspan
         sodipodi:role="line"
         id="tspan1099"
         x="228.0708"
         y="150.42084"
         style="font-style:normal;font-variant:normal;font-weight:bold;font-stretch:normal;font-size:16.93333244px;font-family:'Tw Cen MT Condensed';-inkscape-font-specification:'Tw Cen MT Condensed, Bold';font-variant-ligatures:normal;font-variant-caps:normal;font-variant-numeric:normal;font-feature-settings:normal;text-align:center;writing-mode:lr-tb;text-anchor:middle;stroke:#000000;stroke-width:0.5">THRON<tspan
   style="font-size:22.57777786px;stroke:none;stroke-width:0.5"
   id="tspan1115">O</tspan>VISION</tspan></text>
    <g
       id="g5048"
       transform="matrix(0.7042092,0,0,0.7042092,39.269198,57.821284)"
       style="stroke-width:1.42003262">
      <path
         id="path5052"
         d="m 137.44976,162.30236 c -0.8239,-3.44778 -4.01456,-5.56235 -8.00133,-6.9196 -10.76785,-3.66576 -20.73711,-5.51386 -30.70097,-5.52163 -9.963865,-0.008 -19.922649,1.82481 -30.669447,5.52163 -3.723537,1.28087 -7.152939,3.48528 -8.005868,7.00583"
         style="color:#000000;clip-rule:nonzero;display:inline;overflow:visible;visibility:visible;opacity:1;isolation:auto;mix-blend-mode:normal;color-interpolation:sRGB;color-interpolation-filters:linearRGB;solid-color:#000000;solid-opacity:1;vector-effect:none;fill:none;fill-opacity:1;fill-rule:evenodd;stroke:#773700;stroke-width:4.2600975;stroke-linecap:butt;stroke-linejoin:miter;stroke-miterlimit:4;stroke-dasharray:none;stroke-dashoffset:0;stroke-opacity:1;marker:none;color-rendering:auto;image-rendering:auto;shape-rendering:auto;text-rendering:auto;enable-background:accumulate"
         inkscape:connector-curvature="0"
         sodipodi:nodetypes="cccsc" />
      <path
         inkscape:connector-curvature="0"
         style="color:#000000;clip-rule:nonzero;display:inline;overflow:visible;visibility:visible;opacity:1;isolation:auto;mix-blend-mode:normal;color-interpolation:sRGB;color-interpolation-filters:linearRGB;solid-color:#000000;solid-opacity:1;vector-effect:none;fill:#bc7130;fill-opacity:1;fill-rule:evenodd;stroke:none;stroke-width:0.71001625;stroke-linecap:round;stroke-linejoin:miter;stroke-miterlimit:4;stroke-dasharray:none;stroke-dashoffset:0;stroke-opacity:1;marker:none;color-rendering:auto;image-rendering:auto;shape-rendering:auto;text-rendering:auto;enable-background:accumulate"
         d="m 98.74746,149.86113 c -9.963865,-0.008 -19.922646,1.82482 -30.669447,5.52163 -4.300297,1.47927 -8.208282,4.19035 -8.208282,8.73797 v 3.63027 h 77.787499 v -3.63027 c 0,-4.54762 -3.56413,-7.15675 -8.2088,-8.73797 -10.76785,-3.66576 -20.73711,-5.51386 -30.70097,-5.52163 z"
         id="path5033" />
      <path
         id="rect5027"
         transform="scale(0.26458333)"
         d="m 373.21875,566.4043 c -37.6587,-0.0293 -75.29819,6.89694 -115.91602,20.86914 -11.73291,4.03603 -22.69007,10.49985 -27.8789,20.24804 1.35417,-2.40623 3.00516,-4.34293 4.99609,-5.49804 36.59929,-21.2343 81.04595,-27.198 123.24805,-29.44727 46.69057,-2.48848 93.31485,7.63345 137.83398,21.45117 11.0589,3.43244 20.65995,14.62106 24.77735,26.375 v -0.10351 c 0,-17.18786 -13.47074,-27.04913 -31.02539,-33.02539 -40.69739,-13.85484 -78.37646,-20.8398 -116.03516,-20.86914 z"
         style="color:#000000;clip-rule:nonzero;display:inline;overflow:visible;visibility:visible;opacity:1;isolation:auto;mix-blend-mode:normal;color-interpolation:sRGB;color-interpolation-filters:linearRGB;solid-color:#000000;solid-opacity:1;vector-effect:none;fill:#da902f;fill-opacity:1;fill-rule:evenodd;stroke:none;stroke-width:2.68352604;stroke-linecap:round;stroke-linejoin:miter;stroke-miterlimit:4;stroke-dasharray:none;stroke-dashoffset:0;stroke-opacity:1;marker:none;color-rendering:auto;image-rendering:auto;shape-rendering:auto;text-rendering:auto;enable-background:accumulate"
         inkscape:connector-curvature="0" />
      <path
         style="font-style:normal;font-weight:normal;font-size:16.93333244px;line-height:125%;font-family:sans-serif;text-align:center;letter-spacing:0px;word-spacing:0px;text-anchor:middle;fill:#773400;fill-opacity:1;stroke:none;stroke-width:0.71001631;stroke-linecap:butt;stroke-linejoin:miter;stroke-opacity:1"
         d="m 101.42304,153.48526 c -0.8843,-0.004 -1.619263,0.23109 -2.187806,0.69209 -0.56375,0.46194 -0.99542,1.10468 -1.30851,1.9272 l -10e-4,0.003 c -0.31426,0.82664 -0.43596,2.0938 -0.42733,3.83135 0.008,1.62308 0.14468,2.92068 0.4418,3.89129 0.13617,0.44515 0.30609,0.8217 0.5123,1.13034 0.65634,0.97544 1.564526,1.46361 2.725846,1.46257 1.13854,-9.5e-4 2.05675,-0.47404 2.76017,-1.41492 0.71234,-0.95187 1.0489,-2.65322 1.15114,-5.13536 0.0499,-1.21209 0.0289,-2.17913 -0.0914,-2.91744 -0.11962,-0.74295 -0.34344,-1.36771 -0.68495,-1.8752 -0.33487,-0.5136 -0.71712,-0.90474 -1.14738,-1.17313 -0.42913,-0.27451 -1.0129,-0.41801 -1.74307,-0.42109 z m -0.0592,2.56551 c 0.34706,9.5e-4 0.63702,0.14618 0.86724,0.43364 0.2304,0.28768 0.37297,0.66401 0.43188,1.12855 0.0653,0.46056 0.0777,1.22651 0.0493,2.31474 -0.0317,1.21315 -0.0895,2.05313 -0.18686,2.53119 -0.0969,0.46967 -0.25829,0.82009 -0.48576,1.05145 -0.22738,0.23127 -0.47575,0.34663 -0.74553,0.34655 -0.33159,-8e-5 -0.61639,-0.11919 -0.85411,-0.35731 -0.2321,-0.23814 -0.38136,-0.5619 -0.448223,-0.97256 -0.067,-0.41857 -0.0904,-1.27752 -0.078,-2.58446 0.003,-0.26516 0.005,-0.53042 0.007,-0.79557 0.008,-1.07468 0.119523,-1.85515 0.344743,-2.3483 0.22471,-0.49849 0.59194,-0.74957 1.09833,-0.74792 z m 7.1709,0.72948 c -0.60226,0.0124 -1.13881,0.22353 -1.57685,0.62575 -0.50022,0.45932 -0.77155,1.07073 -0.81309,1.80195 -0.0193,0.34079 0.0144,0.68123 0.0997,1.01918 l 2.8e-4,9.6e-4 2.7e-4,9.6e-4 c 0.0899,0.33303 0.23107,0.66621 0.4225,0.99843 l 5.5e-4,9.6e-4 5.5e-4,7.8e-4 c 0.20027,0.33465 0.61403,0.83381 1.24738,1.49433 l 2.7e-4,2.6e-4 2.8e-4,2.6e-4 c 0.38574,0.39835 0.56379,0.74142 0.56538,1.01764 0.001,0.18973 -0.0604,0.33288 -0.19516,0.45876 l -0.001,5.2e-4 -5.5e-4,9.6e-4 c -0.12993,0.12475 -0.28303,0.18248 -0.49059,0.17904 -0.47022,-0.008 -0.97213,-0.31423 -1.48275,-0.97486 l -0.2327,-0.30123 -0.002,0.37422 c -0.003,0.72557 0.004,1.45165 0.0209,2.17796 l 0.002,0.0538 0.0421,0.0358 c 0.58072,0.49568 1.1927,0.75242 1.81062,0.75638 0.74354,0.005 1.35312,-0.26997 1.79614,-0.8012 l 2.8e-4,-5.3e-4 c 0.44721,-0.53133 0.64991,-1.20813 0.64259,-2.01839 -0.004,-0.41311 -0.0641,-0.79889 -0.18444,-1.15673 -0.11921,-0.35446 -0.27721,-0.66755 -0.47826,-0.93773 l -5.5e-4,-2.6e-4 c -0.19916,-0.27252 -0.52816,-0.63673 -0.98573,-1.0991 -0.42539,-0.43965 -0.60624,-0.80239 -0.58871,-1.05965 0.01,-0.14181 0.0725,-0.26137 0.20777,-0.37705 0.13902,-0.11501 0.27503,-0.16051 0.42812,-0.15163 0.35381,0.0205 0.73146,0.30976 1.12728,0.92006 l 0.20991,0.32376 0.0295,-0.37985 c 0.0582,-0.74629 0.135,-1.4916 0.23001,-2.23585 l 0.009,-0.0678 -0.0552,-0.0433 c -0.48307,-0.37719 -1.00072,-0.59328 -1.54362,-0.63087 -0.0888,-0.006 -0.17601,-0.009 -0.26191,-0.007 z m -12.557446,0.0489 -0.12975,0.006 c -0.55818,0.0248 -1.11609,0.0534 -1.67363,0.0861 l -0.12975,0.008 0.008,0.12397 c 0.11245,1.66733 0.15283,3.33776 0.14182,5.01062 -0.57614,-1.66779 -1.20801,-3.31494 -1.96745,-4.93044 l -0.0373,-0.0797 -0.0911,0.007 c -0.64119,0.0482 -1.28162,0.10096 -1.921337,0.15855 l -0.117687,0.0107 v 0.11962 l 8.23e-4,0.007 c 0.336848,2.94085 0.358923,5.90153 0.06622,8.88269 l -0.01341,0.1373 0.144497,-0.002 c 0.559274,-0.008 1.118424,-0.014 1.677654,-0.0203 l 0.11822,-0.002 0.009,-0.1127 c 0.14274,-1.68295 0.18775,-3.36046 0.1638,-5.03418 0.61851,1.65439 1.15881,3.33014 1.64387,5.03597 l 0.0263,0.0922 0.10026,-9.6e-4 c 0.60828,-0.006 1.21663,-0.0104 1.82482,-0.0146 l 0.12198,-7.8e-4 0.006,-0.11655 c 0.16779,-3.08823 0.17867,-6.17111 0.033,-9.2482 z m 18.570236,0.53969 c -0.77857,-0.007 -1.53213,0.31135 -2.20175,0.95233 -0.77057,0.73356 -1.21998,1.90875 -1.27687,3.47224 -0.0552,1.51694 0.30517,2.71128 1.01147,3.53141 l 2.7e-4,2.6e-4 v 2.6e-4 c 0.70718,0.81617 1.60127,1.23035 2.59878,1.24663 0.007,1.3e-4 0.01,4e-5 0.008,0 h 2.7e-4 c 0.556,0.008 1.05357,-0.0924 1.48705,-0.29814 l 0.0818,-0.0387 -0.0107,-0.0869 c -0.0799,-0.64529 -0.13464,-1.28809 -0.1646,-1.92847 l -0.0107,-0.2331 -0.19623,0.13935 c -0.42689,0.30354 -0.81226,0.44334 -1.17045,0.43108 -0.0541,-0.002 -0.10696,-0.007 -0.15843,-0.0133 -0.37694,-0.0513 -0.70333,-0.23715 -0.98493,-0.57991 -0.30021,-0.37478 -0.48392,-1.09073 -0.4426,-2.11879 0.0395,-0.98197 0.28004,-1.64681 0.62168,-1.98381 0.32006,-0.31571 0.65396,-0.45979 1.00637,-0.45926 h 2.8e-4 c 0.0446,4e-5 0.0888,0.002 0.13297,0.007 h 2.7e-4 2.7e-4 c 0.14187,0.0148 0.26962,0.0435 0.38417,0.0848 h 5.4e-4 l 5.5e-4,2.6e-4 c 0.0896,0.0315 0.36976,0.19899 0.78039,0.48539 l 0.17747,0.12371 0.0276,-0.20824 c 0.0765,-0.57873 0.17409,-1.15555 0.29274,-1.73023 l 0.0161,-0.0789 -0.0686,-0.0463 c -0.4718,-0.31796 -0.94486,-0.52771 -1.42217,-0.61858 h -2.7e-4 c -0.0616,-0.0118 -0.12349,-0.022 -0.18552,-0.0297 -0.11199,-0.014 -0.22377,-0.0213 -0.33483,-0.0223 z m -28.27048,0.10323 c -0.122635,0.003 -0.249887,0.0123 -0.382284,0.0287 -0.64393,0.0794 -1.161403,0.31057 -1.539053,0.68262 l -2.75e-4,2.6e-4 -2.74e-4,2.6e-4 c -0.369654,0.36803 -0.6304,0.84284 -0.8088,1.41928 -0.18578,0.60029 -0.204468,1.43491 -0.184439,2.59419 0.02732,1.58177 0.137275,2.68704 0.607202,3.39283 l 2.75e-4,2.7e-4 c 0.454098,0.67647 1.143341,1.03258 2.050283,1.01892 0.885204,-0.0133 1.668859,-0.37349 2.282711,-1.08015 0.624267,-0.718 0.991936,-1.99431 0.970185,-3.77448 -0.01062,-0.86889 -0.110381,-1.56797 -0.274247,-2.08959 -0.164134,-0.52602 -0.410605,-0.96078 -0.734275,-1.29684 l -2.74e-4,-2.6e-4 c -0.314854,-0.33566 -0.655665,-0.58021 -1.015224,-0.73128 h -2.74e-4 c -0.277694,-0.11996 -0.603232,-0.17311 -0.971258,-0.1647 z m 33.49511,0.67646 c -0.0558,-0.002 -0.11102,-9.1e-4 -0.16567,5.3e-4 -0.36483,0.0113 -0.70611,0.0911 -1.01603,0.2418 h -2.8e-4 l -2.7e-4,2.5e-4 c -0.48529,0.23865 -0.90724,0.62188 -1.24229,1.14239 -0.34005,0.52827 -0.58149,1.38734 -0.6316,2.55808 -0.0686,1.60186 0.29446,2.79425 0.90451,3.49888 l 2.7e-4,2.6e-4 c 0.60894,0.69934 1.40715,1.0539 2.30657,1.07246 0.88724,0.0183 1.55939,-0.29843 2.01141,-0.90008 0.4838,-0.64313 0.54257,-1.67107 0.60185,-3.18485 0.0289,-0.73782 0.0481,-1.31217 -0.002,-1.78581 v -2.7e-4 c -0.0479,-0.46805 -0.1594,-0.87978 -0.35869,-1.23766 l -2.8e-4,-2.7e-4 c -0.19029,-0.35371 -0.41673,-0.64509 -0.69352,-0.86857 h -2.8e-4 c -0.28321,-0.23364 -0.68376,-0.39471 -1.19859,-0.48462 h -2.7e-4 l -0.0113,-0.002 h -0.009 c -0.16889,-0.0286 -0.33443,-0.0466 -0.49515,-0.0505 z m -39.613523,0.38242 v 2.6e-4 c -0.178792,0.003 -0.355195,0.0181 -0.528925,0.0463 -0.745755,0.12141 -1.48982,0.24772 -2.231775,0.37858 l -0.106159,0.0187 v 0.11885 l 0.004,0.0148 c 0.625905,2.37891 0.659869,4.82888 0.100531,7.35559 l -0.03405,0.15343 0.164065,-0.004 c 0.574145,-0.014 1.14848,-0.0275 1.722688,-0.0407 l 0.104284,-0.002 0.01984,-0.0981 c 0.2176,-1.08181 0.315956,-2.15031 0.341803,-3.21073 0.354245,1.02821 0.637809,2.08189 0.818184,3.17461 l 0.01769,0.10707 0.113398,-0.003 c 0.336282,-0.008 0.672738,-0.0145 1.009056,-0.0215 0.252793,-0.005 0.505483,-0.0102 0.758401,-0.0154 l 0.155487,-0.003 -0.0311,-0.14549 c -0.14196,-0.66421 -0.310051,-1.31855 -0.506405,-1.9623 -0.16134,-0.52852 -0.34515,-1.04853 -0.546617,-1.56193 0.221549,-0.14901 0.425057,-0.30176 0.585758,-0.46388 0.147033,-0.14842 0.268497,-0.30263 0.362712,-0.46258 v -2.7e-4 l 2.75e-4,-2.6e-4 c 0.211877,-0.36461 0.297913,-0.81348 0.248242,-1.32886 -0.04151,-0.43071 -0.194429,-0.83643 -0.454665,-1.20437 l -2.75e-4,-2.6e-4 c -0.135702,-0.19526 -0.30831,-0.35717 -0.513376,-0.48282 -0.193564,-0.11849 -0.415208,-0.20447 -0.661623,-0.25922 h -2.75e-4 c -0.308745,-0.0696 -0.613199,-0.10161 -0.911207,-0.0973 z m 44.041953,0.58246 -0.0354,0.10809 c -0.7625,2.33319 -0.83221,4.76722 -0.21097,7.29309 l 0.0228,0.0925 0.0995,0.003 c 0.58142,0.0169 1.16287,0.0344 1.74413,0.0527 l 0.17479,0.006 -0.0453,-0.16137 c -0.24988,-0.8941 -0.39144,-1.77091 -0.441,-2.63312 0.11029,0.0112 0.22057,0.0225 0.33082,0.0338 0.82089,0.0844 1.45843,-0.0234 1.9208,-0.31864 l 2.7e-4,-2.6e-4 h 2.8e-4 c 0.46484,-0.30053 0.7043,-0.76467 0.79137,-1.36343 0.0942,-0.64752 0.0273,-1.20978 -0.30025,-1.65826 -0.32753,-0.44847 -0.90194,-0.76674 -1.7755,-0.96334 -0.71682,-0.16133 -1.43715,-0.31691 -2.16047,-0.46644 z m -48.235009,0.10143 -0.118492,0.0221 c -0.570896,0.1058 -1.140803,0.21429 -1.709553,0.32504 l -0.137794,0.0269 0.03914,0.12909 c 0.241889,0.7983 0.392176,1.60843 0.462439,2.42949 -0.440897,0.0568 -0.88172,0.11443 -1.322175,0.17315 -0.0712,-0.79847 -0.224711,-1.58567 -0.474772,-2.35905 l -0.03485,-0.10809 -0.11608,0.0236 c -0.564783,0.11463 -1.128222,0.2315 -1.691055,0.3504 l -0.140206,0.0294 0.04504,0.13039 c 0.685602,1.98149 0.681838,4.05889 -0.01474,6.24547 l -0.05254,0.16521 0.180685,-0.005 c 0.580457,-0.017 1.160739,-0.0339 1.741187,-0.0502 l 0.0957,-0.003 0.02547,-0.0881 c 0.273524,-0.94446 0.428128,-1.87339 0.47638,-2.78835 0.436486,-0.0432 0.873136,-0.0856 1.309844,-0.1273 -0.04341,0.92182 -0.183731,1.85681 -0.436167,2.80807 l -0.04209,0.15906 0.171572,-0.005 c 0.578372,-0.0156 1.15662,-0.0308 1.73502,-0.0456 l 0.100262,-0.003 0.02252,-0.0934 c 0.600415,-2.48786 0.573291,-4.90045 -0.08337,-7.23059 z m 10.279835,0.26742 c 0.180368,1e-5 0.33481,0.061 0.483082,0.19927 0.17124,0.15964 0.296535,0.38383 0.368075,0.68185 l 2.75e-4,9.6e-4 2.74e-4,9.5e-4 c 0.07394,0.28825 0.137549,0.82506 0.147176,1.56887 0.01075,0.82956 -0.04885,1.42823 -0.124389,1.73765 -0.0777,0.31449 -0.20261,0.54087 -0.359229,0.68646 -0.162884,0.15141 -0.322921,0.22032 -0.49032,0.22617 -0.219836,0.008 -0.386251,-0.053 -0.532409,-0.18749 -0.141397,-0.1341 -0.231383,-0.32063 -0.269153,-0.57811 v -2.7e-4 c -0.04014,-0.28013 -0.03536,-0.82933 -0.04879,-1.7333 -0.0026,-0.18004 -0.0071,-0.3597 -0.01341,-0.53943 -0.02545,-0.72144 0.01091,-1.23957 0.13002,-1.55759 l 2.75e-4,-2.6e-4 v -2.7e-4 c 0.117282,-0.31817 0.304729,-0.46869 0.629454,-0.50152 0.02657,-0.003 0.05291,-0.004 0.07908,-0.004 z m 33.519234,0.54711 c 0.0366,9.6e-4 0.0748,0.004 0.11447,0.01 l 0.002,2.7e-4 c 0.21182,0.0305 0.36295,0.12455 0.4855,0.29968 0.12479,0.17834 0.1941,0.39966 0.21017,0.67646 v 9.6e-4 9.5e-4 c 0.0216,0.2889 -0.006,0.73819 -0.033,1.43106 -0.0301,0.77571 -0.034,1.26927 -0.0836,1.56579 -0.0473,0.27675 -0.13655,0.46359 -0.26192,0.57683 -0.13278,0.11992 -0.26802,0.16949 -0.4367,0.16136 -0.21942,-0.0106 -0.40926,-0.0846 -0.58201,-0.23155 l -2.7e-4,-2.6e-4 c -0.16804,-0.14638 -0.28482,-0.33955 -0.34636,-0.59015 v -2.6e-4 c -0.0583,-0.2406 -0.11599,-0.82615 -0.0823,-1.65262 0.007,-0.17047 0.0164,-0.34076 0.0279,-0.51075 0.0458,-0.67758 0.19586,-1.15709 0.37719,-1.41594 l 2.7e-4,-2.6e-4 v -2.6e-4 c 0.16056,-0.23179 0.3515,-0.32722 0.60908,-0.3212 z m -39.825036,0.0187 c 0.2137,0.006 0.368194,0.0746 0.489516,0.21362 0.121322,0.13901 0.207952,0.35901 0.238324,0.66904 0.03013,0.30757 -0.02184,0.56107 -0.142083,0.76662 -0.08961,0.14963 -0.368072,0.26675 -0.804511,0.32991 -0.03013,-0.64955 -0.09612,-1.29502 -0.199452,-1.93616 0.07377,-0.0104 0.147501,-0.0206 0.221435,-0.0309 0.07039,-0.01 0.135878,-0.0138 0.196771,-0.012 z m 49.889076,0.35655 -0.0426,0.10219 c -0.80771,1.93197 -0.79298,4.01095 0.0367,6.21602 l 0.0295,0.0786 0.0874,0.003 c 1.32576,0.0496 2.65099,0.1031 3.97591,0.16034 l 0.21688,0.01 -0.0941,-0.18698 c -0.18918,-0.3759 -0.34418,-0.74454 -0.46566,-1.10602 l -0.0265,-0.0784 -0.0855,-0.008 c -0.70612,-0.0598 -1.4131,-0.11738 -2.12026,-0.17366 -0.094,-0.357 -0.15537,-0.70755 -0.1957,-1.05401 0.49557,0.0633 0.99071,0.12748 1.48517,0.19338 l 0.16648,0.0223 -0.0198,-0.15957 c -0.041,-0.33293 -0.0523,-0.65957 -0.0346,-0.98051 l 0.006,-0.1086 -0.11152,-0.02 c -0.50506,-0.0899 -1.01146,-0.17739 -1.51841,-0.26383 0.0257,-0.29881 0.0738,-0.59349 0.14235,-0.88445 0.58773,0.12919 1.17383,0.26062 1.75781,0.39549 l 0.12466,0.0289 0.0316,-0.11885 c 0.0843,-0.31594 0.20044,-0.62603 0.34851,-0.9303 l 0.0633,-0.13038 -0.14423,-0.0407 c -1.15703,-0.32616 -2.32478,-0.63947 -3.50221,-0.93824 z m -59.865443,0.0143 -0.113398,0.0244 c -1.581083,0.34149 -3.154596,0.69845 -4.721712,1.06734 l -0.14664,0.0346 0.05791,0.13319 c 0.135193,0.31126 0.241643,0.62697 0.319016,0.94695 l 0.02842,0.11757 0.123585,-0.0241 c 0.467432,-0.0906 0.935253,-0.17977 1.403404,-0.26843 0.288977,1.36252 0.139347,2.79358 -0.473162,4.30597 l -0.07077,0.17495 0.195967,-0.006 c 0.573954,-0.0183 1.148163,-0.0365 1.722153,-0.0543 l 0.08873,-0.003 0.02922,-0.0802 c 0.600201,-1.63255 0.739971,-3.20267 0.431611,-4.70531 0.463622,-0.085 0.92751,-0.16926 1.391876,-0.25204 l 0.129483,-0.0233 -0.02627,-0.1232 c -0.0832,-0.39081 -0.19385,-0.77753 -0.331615,-1.16006 z m 55.779083,0.40624 h 2.7e-4 c 0.0837,0.0159 0.16746,0.0316 0.25119,0.0477 0.27174,0.0519 0.42241,0.15228 0.5107,0.30583 0.0883,0.15355 0.11401,0.38045 0.0689,0.68697 -0.0405,0.27532 -0.13082,0.45632 -0.27585,0.57196 l -0.001,5.3e-4 -5.5e-4,5.2e-4 c -0.14022,0.11495 -0.32495,0.16164 -0.59568,0.12576 -0.0698,-0.01 -0.13951,-0.0185 -0.20937,-0.0276 0.0373,-0.57754 0.12128,-1.14804 0.25146,-1.71153 z"
         id="path5025"
         inkscape:connector-curvature="0" />
      <path
         inkscape:connector-curvature="0"
         id="path4898"
         d="m 100.62929,152.72687 c -0.884297,-0.004 -1.619267,0.23108 -2.187807,0.69208 -0.56375,0.46194 -0.99542,1.10469 -1.30851,1.9272 l -0.001,0.003 c -0.31426,0.82663 -0.43596,2.09379 -0.42733,3.83134 0.008,1.62309 0.14468,2.92069 0.4418,3.89129 0.13617,0.44516 0.30609,0.8217 0.5123,1.13035 0.65634,0.97543 1.56452,1.46361 2.725847,1.46256 1.13854,-9.5e-4 2.05675,-0.47404 2.76017,-1.41492 0.71234,-0.95186 1.0489,-2.65322 1.15114,-5.13536 0.0499,-1.21208 0.0289,-2.17912 -0.0914,-2.91743 -0.11962,-0.74296 -0.34344,-1.36772 -0.68495,-1.87521 -0.33487,-0.51359 -0.71712,-0.90474 -1.14738,-1.17313 -0.42913,-0.2745 -1.0129,-0.418 -1.74307,-0.42109 z m -0.0592,2.5655 c 0.34706,9.6e-4 0.63702,0.14619 0.86724,0.43364 0.2304,0.28768 0.37297,0.66401 0.43188,1.12855 0.0653,0.46056 0.0777,1.22652 0.0493,2.31475 -0.0317,1.21314 -0.0895,2.05313 -0.18686,2.53118 -0.0969,0.46967 -0.25829,0.8201 -0.48576,1.05145 -0.22738,0.23127 -0.47575,0.34663 -0.74553,0.34656 -0.33159,-9e-5 -0.616387,-0.1192 -0.854107,-0.35731 -0.2321,-0.23814 -0.38137,-0.56191 -0.44823,-0.97257 -0.067,-0.41856 -0.0904,-1.27751 -0.078,-2.58446 0.003,-0.26515 0.005,-0.53042 0.007,-0.79557 0.008,-1.07468 0.11952,-1.85515 0.34475,-2.3483 0.22471,-0.49849 0.591937,-0.74956 1.098327,-0.74792 z m 7.1709,0.72948 c -0.60226,0.0124 -1.13881,0.22353 -1.57685,0.62575 -0.50022,0.45932 -0.77155,1.07074 -0.81309,1.80195 -0.0193,0.34079 0.0144,0.68123 0.0997,1.01919 l 2.8e-4,9.5e-4 2.7e-4,9.6e-4 c 0.0899,0.33303 0.23107,0.66621 0.4225,0.99843 l 5.5e-4,9.6e-4 5.5e-4,7.8e-4 c 0.20027,0.33465 0.61403,0.83381 1.24738,1.49433 l 2.7e-4,2.6e-4 2.8e-4,2.7e-4 c 0.38574,0.39835 0.56379,0.74141 0.56538,1.01764 0.001,0.18972 -0.0604,0.33287 -0.19516,0.45875 l -10e-4,5.3e-4 -5.5e-4,9.5e-4 c -0.12993,0.12476 -0.28303,0.18249 -0.49059,0.17905 -0.47022,-0.008 -0.97213,-0.31424 -1.48275,-0.97487 l -0.2327,-0.30123 -0.002,0.37423 c -0.003,0.72557 0.004,1.45165 0.0209,2.17796 l 0.002,0.0538 0.0421,0.0358 c 0.58072,0.49568 1.1927,0.75242 1.81062,0.75638 0.74354,0.005 1.35312,-0.26997 1.79614,-0.8012 l 2.8e-4,-5.3e-4 c 0.44721,-0.53133 0.64991,-1.20813 0.64259,-2.01838 -0.004,-0.41312 -0.0641,-0.79889 -0.18444,-1.15674 -0.11921,-0.35446 -0.27721,-0.66755 -0.47826,-0.93773 l -5.5e-4,-2.5e-4 c -0.19916,-0.27253 -0.52816,-0.63674 -0.98573,-1.09911 -0.42539,-0.43965 -0.60624,-0.80239 -0.58871,-1.05965 0.01,-0.14181 0.0725,-0.26136 0.20777,-0.37704 0.13902,-0.11502 0.27503,-0.16052 0.42812,-0.15163 0.35381,0.0205 0.73146,0.30976 1.12728,0.92006 l 0.20991,0.32375 0.0295,-0.37985 c 0.0582,-0.74629 0.135,-1.49159 0.23001,-2.23585 l 0.009,-0.0678 -0.0552,-0.0433 c -0.48307,-0.37718 -1.00072,-0.59327 -1.54362,-0.63087 -0.0888,-0.006 -0.17601,-0.009 -0.26191,-0.007 z m -12.557447,0.0489 -0.12975,0.006 c -0.55818,0.0248 -1.11609,0.0534 -1.67363,0.0861 l -0.12975,0.008 0.008,0.12397 c 0.11245,1.66732 0.15283,3.33776 0.14182,5.01061 -0.57614,-1.66779 -1.20801,-3.31493 -1.96745,-4.93044 l -0.0373,-0.0797 -0.0911,0.007 c -0.64119,0.0482 -1.28162,0.10097 -1.921337,0.15855 l -0.117687,0.0107 v 0.11963 l 8.23e-4,0.007 c 0.336848,2.94086 0.358923,5.90153 0.06622,8.8827 l -0.01341,0.1373 0.144497,-0.002 c 0.559274,-0.008 1.118424,-0.0139 1.677654,-0.0202 l 0.11822,-0.002 0.009,-0.11271 c 0.14274,-1.68294 0.18775,-3.36045 0.1638,-5.03418 0.61851,1.6544 1.15881,3.33014 1.64387,5.03598 l 0.0263,0.0922 0.10026,-9.6e-4 c 0.60828,-0.006 1.21663,-0.0104 1.82482,-0.0146 l 0.12198,-7.9e-4 0.006,-0.11654 c 0.16779,-3.08824 0.17867,-6.17111 0.033,-9.24821 z m 18.570237,0.53969 c -0.77857,-0.007 -1.53213,0.31136 -2.20175,0.95234 -0.77057,0.73355 -1.21998,1.90875 -1.27687,3.47223 -0.0552,1.51695 0.30517,2.71129 1.01147,3.53142 l 2.7e-4,2.5e-4 v 2.6e-4 c 0.70718,0.81617 1.60127,1.23036 2.59878,1.24664 0.007,1.2e-4 0.01,4e-5 0.008,0 h 2.7e-4 c 0.556,0.008 1.05357,-0.0924 1.48705,-0.29814 l 0.0818,-0.0387 -0.0107,-0.0868 c -0.0799,-0.6453 -0.13464,-1.28809 -0.1646,-1.92848 l -0.0107,-0.23309 -0.19623,0.13934 c -0.42689,0.30355 -0.81226,0.44334 -1.17045,0.43108 -0.0541,-0.002 -0.10696,-0.007 -0.15843,-0.0133 -0.37694,-0.0513 -0.70333,-0.23714 -0.98493,-0.5799 -0.30021,-0.37478 -0.48392,-1.09074 -0.4426,-2.11879 0.0395,-0.98197 0.28004,-1.64681 0.62168,-1.98381 0.32006,-0.31571 0.65396,-0.4598 1.00637,-0.45926 h 2.8e-4 c 0.0446,4e-5 0.0888,0.002 0.13297,0.007 h 2.7e-4 2.7e-4 c 0.14187,0.0148 0.26962,0.0435 0.38417,0.0848 h 5.4e-4 l 5.5e-4,2.5e-4 c 0.0896,0.0315 0.36976,0.199 0.78039,0.4854 l 0.17747,0.12371 0.0276,-0.20824 c 0.0765,-0.57873 0.17409,-1.15555 0.29274,-1.73023 l 0.0161,-0.0789 -0.0686,-0.0463 c -0.4718,-0.31796 -0.94486,-0.52771 -1.42217,-0.61859 h -2.7e-4 c -0.0616,-0.0118 -0.12349,-0.022 -0.18552,-0.0297 -0.11199,-0.014 -0.22377,-0.0213 -0.33483,-0.0223 z m -28.270481,0.10323 c -0.122635,0.003 -0.249887,0.0123 -0.382284,0.0287 -0.64393,0.0794 -1.161403,0.31057 -1.539053,0.68261 l -2.75e-4,2.6e-4 -2.74e-4,2.7e-4 c -0.369654,0.36802 -0.6304,0.84284 -0.8088,1.41928 -0.18578,0.60028 -0.204468,1.4349 -0.184439,2.59418 0.02732,1.58177 0.137275,2.68705 0.607202,3.39284 l 2.75e-4,2.6e-4 c 0.454098,0.67648 1.143341,1.03259 2.050283,1.01892 0.885204,-0.0133 1.668859,-0.37348 2.282711,-1.08014 0.624267,-0.71801 0.991936,-1.99431 0.970185,-3.77449 -0.01062,-0.86889 -0.110381,-1.56797 -0.274247,-2.08958 -0.164134,-0.52602 -0.410605,-0.96078 -0.734275,-1.29685 l -2.74e-4,-2.6e-4 c -0.314854,-0.33566 -0.655665,-0.58021 -1.015224,-0.73128 h -2.74e-4 c -0.277694,-0.11995 -0.603232,-0.17311 -0.971258,-0.1647 z m 33.495111,0.67647 c -0.0558,-0.002 -0.11102,-9.2e-4 -0.16567,5.2e-4 -0.36483,0.0113 -0.70611,0.0911 -1.01603,0.2418 h -2.8e-4 l -2.7e-4,2.6e-4 c -0.48529,0.23864 -0.90724,0.62188 -1.24229,1.14238 -0.34005,0.52828 -0.58149,1.38735 -0.6316,2.55808 -0.0686,1.60187 0.29446,2.79425 0.90451,3.49888 l 2.7e-4,2.6e-4 c 0.60894,0.69934 1.40715,1.0539 2.30657,1.07247 0.88724,0.0182 1.55939,-0.29843 2.01141,-0.90008 0.4838,-0.64313 0.54257,-1.67107 0.60185,-3.18486 0.0289,-0.73782 0.0481,-1.31217 -0.002,-1.78581 v -2.6e-4 c -0.0479,-0.46805 -0.1594,-0.87979 -0.35869,-1.23767 l -2.8e-4,-2.6e-4 c -0.19029,-0.35371 -0.41673,-0.64509 -0.69352,-0.86857 h -2.8e-4 c -0.28321,-0.23364 -0.68376,-0.39471 -1.19859,-0.48462 h -2.7e-4 l -0.0113,-0.002 h -0.009 c -0.16889,-0.0286 -0.33443,-0.0466 -0.49515,-0.0504 z m -39.613524,0.38242 v 2.6e-4 c -0.178792,0.003 -0.355195,0.0181 -0.528925,0.0463 -0.745755,0.12141 -1.48982,0.24772 -2.231775,0.37858 l -0.106159,0.0187 v 0.11884 l 0.004,0.0148 c 0.625905,2.37892 0.659869,4.82888 0.100531,7.3556 l -0.03405,0.15342 0.164065,-0.004 c 0.574145,-0.014 1.14848,-0.0275 1.722688,-0.0407 l 0.104284,-0.002 0.01984,-0.0981 c 0.2176,-1.08181 0.315956,-2.15031 0.341803,-3.21072 0.354245,1.0282 0.637809,2.08188 0.818184,3.1746 l 0.01769,0.10707 0.113398,-0.003 c 0.336282,-0.008 0.672738,-0.0145 1.009056,-0.0215 0.252793,-0.005 0.505483,-0.0102 0.758401,-0.0154 l 0.155487,-0.003 -0.0311,-0.14549 c -0.14196,-0.6642 -0.310051,-1.31854 -0.506405,-1.96229 -0.16134,-0.52852 -0.34515,-1.04854 -0.546617,-1.56194 0.221549,-0.149 0.425057,-0.30176 0.585758,-0.46387 0.147033,-0.14842 0.268497,-0.30263 0.362712,-0.46259 v -2.7e-4 l 2.75e-4,-2.5e-4 c 0.211877,-0.36462 0.297913,-0.81348 0.248242,-1.32887 -0.04151,-0.43071 -0.194429,-0.83642 -0.454665,-1.20437 l -2.75e-4,-2.6e-4 c -0.135702,-0.19526 -0.30831,-0.35717 -0.513376,-0.48282 -0.193564,-0.11849 -0.415208,-0.20447 -0.661623,-0.25922 h -2.75e-4 c -0.308745,-0.0696 -0.613199,-0.10161 -0.911207,-0.0973 z m 44.041954,0.58246 -0.0354,0.10809 c -0.7625,2.33318 -0.83221,4.76721 -0.21097,7.29308 l 0.0228,0.0925 0.0995,0.003 c 0.58142,0.0169 1.16287,0.0344 1.74413,0.0527 l 0.17479,0.006 -0.0453,-0.16137 c -0.24988,-0.8941 -0.39144,-1.77091 -0.441,-2.63312 0.11029,0.0112 0.22057,0.0226 0.33082,0.0338 0.82089,0.0844 1.45843,-0.0234 1.9208,-0.31865 l 2.7e-4,-2.6e-4 h 2.8e-4 c 0.46484,-0.30053 0.7043,-0.76467 0.79137,-1.36343 0.0942,-0.64751 0.0273,-1.20978 -0.30025,-1.65825 -0.32753,-0.44848 -0.90194,-0.76675 -1.7755,-0.96335 -0.71682,-0.16132 -1.43715,-0.3169 -2.16047,-0.46643 z m -48.23501,0.10143 -0.118492,0.0221 c -0.570896,0.1058 -1.140803,0.21429 -1.709553,0.32504 l -0.137794,0.0269 0.03914,0.12909 c 0.241889,0.79831 0.392176,1.60843 0.462439,2.4295 -0.440897,0.0568 -0.88172,0.11442 -1.322175,0.17314 -0.0712,-0.79846 -0.224711,-1.58567 -0.474772,-2.35904 l -0.03485,-0.10809 -0.11608,0.0236 c -0.564783,0.11462 -1.128222,0.23149 -1.691055,0.35039 l -0.140206,0.0294 0.04504,0.13038 c 0.685602,1.9815 0.681838,4.0589 -0.01474,6.24547 l -0.05254,0.16521 0.180685,-0.005 c 0.580457,-0.017 1.160739,-0.0339 1.741187,-0.0502 l 0.0957,-0.003 0.02547,-0.0881 c 0.273524,-0.94446 0.428128,-1.87338 0.47638,-2.78834 0.436486,-0.0432 0.873136,-0.0856 1.309844,-0.12731 -0.04341,0.92182 -0.183731,1.85681 -0.436167,2.80808 l -0.04209,0.15905 0.171572,-0.005 c 0.578372,-0.0156 1.15662,-0.0308 1.73502,-0.0456 l 0.100262,-0.003 0.02252,-0.0934 c 0.600415,-2.48785 0.573291,-4.90044 -0.08337,-7.23059 z m 10.279835,0.26741 c 0.180368,1e-5 0.33481,0.0611 0.483082,0.19927 0.17124,0.15964 0.296535,0.38384 0.368075,0.68186 l 2.75e-4,9.5e-4 2.74e-4,9.6e-4 c 0.07394,0.28825 0.137549,0.82505 0.147176,1.56886 0.01075,0.82957 -0.04885,1.42823 -0.124389,1.73766 -0.0777,0.31448 -0.20261,0.54086 -0.359229,0.68645 -0.162884,0.15142 -0.322921,0.22032 -0.49032,0.22617 -0.219836,0.008 -0.386251,-0.053 -0.532409,-0.18749 -0.141397,-0.1341 -0.231383,-0.32062 -0.269153,-0.57811 v -2.7e-4 c -0.04014,-0.28013 -0.03536,-0.82932 -0.04879,-1.73329 -0.0026,-0.18004 -0.0071,-0.35971 -0.01341,-0.53944 -0.02545,-0.72144 0.01091,-1.23956 0.13002,-1.55759 l 2.75e-4,-2.5e-4 v -2.7e-4 c 0.117282,-0.31818 0.304729,-0.46869 0.629454,-0.50152 0.02657,-0.003 0.05291,-0.004 0.07908,-0.004 z m 33.519235,0.54712 c 0.0366,9.5e-4 0.0748,0.004 0.11447,0.01 l 0.002,2.7e-4 c 0.21182,0.0305 0.36295,0.12455 0.4855,0.29968 0.12479,0.17835 0.1941,0.39967 0.21017,0.67646 v 9.6e-4 9.6e-4 c 0.0216,0.2889 -0.006,0.73818 -0.033,1.43105 -0.0301,0.77571 -0.034,1.26927 -0.0836,1.56579 -0.0473,0.27676 -0.13655,0.4636 -0.26192,0.57683 -0.13278,0.11993 -0.26802,0.1695 -0.4367,0.16137 -0.21942,-0.0106 -0.40926,-0.0846 -0.58201,-0.23156 l -2.7e-4,-2.6e-4 c -0.16804,-0.14637 -0.28482,-0.33955 -0.34636,-0.59014 v -2.6e-4 c -0.0583,-0.24061 -0.11599,-0.82616 -0.0823,-1.65262 0.007,-0.17047 0.0164,-0.34077 0.0279,-0.51075 0.0458,-0.67758 0.19586,-1.15709 0.37719,-1.41594 l 2.7e-4,-2.6e-4 v -2.7e-4 c 0.16056,-0.23178 0.3515,-0.32722 0.60908,-0.3212 z m -39.825037,0.0187 c 0.2137,0.006 0.368194,0.0746 0.489516,0.21363 0.121322,0.139 0.207952,0.35901 0.238324,0.66904 0.03013,0.30757 -0.02184,0.56106 -0.142083,0.76662 -0.08961,0.14962 -0.368072,0.26674 -0.804511,0.32991 -0.03013,-0.64955 -0.09612,-1.29502 -0.199452,-1.93616 0.07377,-0.0104 0.147501,-0.0206 0.221435,-0.031 0.07039,-0.01 0.135878,-0.0138 0.196771,-0.012 z m 49.889077,0.35655 -0.0426,0.1022 c -0.80771,1.93196 -0.79298,4.01095 0.0367,6.21601 l 0.0295,0.0786 0.0874,0.003 c 1.32576,0.0496 2.65099,0.10311 3.97591,0.16035 l 0.21688,0.01 -0.0941,-0.18698 c -0.18918,-0.3759 -0.34418,-0.74453 -0.46566,-1.10602 l -0.0265,-0.0784 -0.0855,-0.008 c -0.70612,-0.0598 -1.4131,-0.11739 -2.12026,-0.17367 -0.094,-0.35699 -0.15537,-0.70754 -0.1957,-1.05401 0.49557,0.0634 0.99071,0.12749 1.48517,0.19339 l 0.16648,0.0223 -0.0198,-0.15957 c -0.041,-0.33293 -0.0523,-0.65958 -0.0346,-0.98051 l 0.006,-0.1086 -0.11152,-0.02 c -0.50506,-0.0899 -1.01146,-0.17739 -1.51841,-0.26383 0.0257,-0.29881 0.0738,-0.5935 0.14235,-0.88445 0.58773,0.12919 1.17383,0.26062 1.75781,0.39548 l 0.12466,0.029 0.0316,-0.11885 c 0.0843,-0.31594 0.20044,-0.62602 0.34851,-0.9303 l 0.0633,-0.13037 -0.14423,-0.0407 c -1.15703,-0.32617 -2.32478,-0.63947 -3.50221,-0.93825 z m -59.865444,0.0143 -0.113398,0.0244 c -1.581083,0.34148 -3.154596,0.69845 -4.721712,1.06733 l -0.14664,0.0346 0.05791,0.13319 c 0.135193,0.31126 0.241643,0.62697 0.319016,0.94696 l 0.02842,0.11757 0.123585,-0.0241 c 0.467432,-0.0906 0.935253,-0.17977 1.403404,-0.26844 0.288977,1.36252 0.139347,2.79358 -0.473162,4.30598 l -0.07077,0.17494 0.195967,-0.006 c 0.573954,-0.0183 1.148163,-0.0365 1.722153,-0.0543 l 0.08873,-0.003 0.02922,-0.0802 c 0.600201,-1.63254 0.739971,-3.20267 0.431611,-4.7053 0.463622,-0.085 0.92751,-0.16927 1.391876,-0.25204 l 0.129483,-0.0233 -0.02627,-0.1232 c -0.0832,-0.39081 -0.19385,-0.77753 -0.331615,-1.16006 z m 55.779084,0.40625 h 2.7e-4 c 0.0837,0.0159 0.16746,0.0316 0.25119,0.0477 0.27174,0.0519 0.42241,0.15228 0.5107,0.30584 0.0883,0.15355 0.11401,0.38044 0.0689,0.68696 -0.0405,0.27533 -0.13082,0.45632 -0.27585,0.57197 l -10e-4,5.2e-4 -5.5e-4,5.2e-4 c -0.14022,0.11495 -0.32495,0.16164 -0.59568,0.12577 -0.0698,-0.01 -0.13951,-0.0185 -0.20937,-0.0276 0.0373,-0.57753 0.12128,-1.14804 0.25146,-1.71153 z"
         style="font-style:normal;font-weight:normal;font-size:16.93333244px;line-height:125%;font-family:sans-serif;text-align:center;letter-spacing:0px;word-spacing:0px;text-anchor:middle;fill:#ffe6d5;fill-opacity:1;stroke:none;stroke-width:0.71001631;stroke-linecap:butt;stroke-linejoin:miter;stroke-opacity:1" />
    </g>
    <path
       style="font-style:normal;font-weight:normal;font-size:16.93333244px;line-height:125%;font-family:sans-serif;text-align:center;letter-spacing:0px;word-spacing:0px;text-anchor:middle;fill:#000000;fill-opacity:1;stroke:none;stroke-width:0.5;stroke-linecap:butt;stroke-linejoin:miter;stroke-opacity:1"
       d="m 229.19735,160.67546 c -1.05833,0 -1.93677,0.24954 -2.63497,0.74931 -0.69086,0.49977 -1.24558,1.20182 -1.6645,2.10581 -0.41893,0.904 -0.62839,2.32263 -0.62839,4.25556 0,2.63848 0.44448,4.50509 1.33377,5.60017 0.88929,1.08774 2.07991,1.63143 3.57187,1.63143 1.46256,0 2.65319,-0.52515 3.57187,-1.57613 0.92604,-1.05834 1.38907,-2.97306 1.38907,-5.74384 0,-1.35231 -0.10674,-2.4362 -0.31989,-3.252 -0.21312,-0.82314 -0.55086,-1.51067 -1.01388,-2.06188 -0.45566,-0.55857 -0.95176,-0.981 -1.48828,-1.26763 -0.53652,-0.29398 -1.24206,-0.4408 -2.11667,-0.4408 z m 0,2.84427 c 0.43363,0 0.80092,0.15784 1.10226,0.47388 0.30133,0.31602 0.49977,0.73145 0.59531,1.24591 0.1029,0.50712 0.15452,1.363 0.15452,2.56832 0,1.34497 -0.0591,2.28203 -0.17675,2.8112 -0.11758,0.52182 -0.32303,0.91169 -0.617,1.16892 -0.29398,0.25724 -0.6177,0.38551 -0.9705,0.38551 -0.43359,0 -0.80843,-0.13229 -1.12447,-0.39688 -0.30867,-0.26458 -0.51062,-0.62436 -0.60617,-1.08004 -0.0955,-0.46302 -0.14313,-1.41863 -0.14313,-2.86649 v -0.88211 c 0,-1.19063 0.1393,-2.05753 0.41857,-2.6014 0.27929,-0.55121 0.7353,-0.82682 1.36736,-0.82682 z m 9.39168,0.40618 c -0.91011,0 -1.69124,0.28201 -2.29494,0.84387 -0.60333,0.56152 -0.91364,1.29806 -0.91364,2.15026 0,0.39792 0.0677,0.79476 0.20307,1.18339 l 0.003,0.002 v 0.002 c 0.14128,0.38263 0.34919,0.76084 0.6196,1.13482 l 0.003,0.002 v 0.002 c 0.2916,0.38878 0.85096,0.92557 1.69966,1.65778 v 0.002 h 0.003 c 0.5036,0.43016 0.7054,0.79136 0.7054,1.04128 0,0.17767 -0.0592,0.30221 -0.22272,0.43563 l -0.003,0.002 c -0.15634,0.131 -0.34465,0.1974 -0.60719,0.1974 -0.59836,0 -1.22423,-0.32374 -1.88516,-1.04283 l -0.43357,-0.47284 v 3.20497 l 0.10181,0.0765 c 0.75007,0.55967 1.53858,0.85163 2.34768,0.85163 0.96821,0 1.79279,-0.32028 2.41792,-0.95136 0.62939,-0.63 0.9493,-1.45343 0.9493,-2.41587 0,-0.49179 -0.085,-0.95387 -0.25787,-1.37718 -0.16981,-0.41575 -0.39817,-0.78025 -0.68368,-1.08986 -0.28289,-0.31236 -0.73385,-0.71283 -1.36734,-1.21853 -0.57518,-0.47043 -0.80822,-0.85831 -0.80822,-1.07642 0,-0.11973 0.0447,-0.22056 0.19325,-0.34726 0.15256,-0.12573 0.30525,-0.17984 0.49196,-0.17984 0.43392,0 0.93904,0.2848 1.50432,0.94516 l 0.43923,0.51367 v -0.67541 -2.73265 l -0.12504,-0.0724 c -0.68167,-0.39282 -1.3779,-0.59583 -2.07637,-0.59583 z m -28.94707,0.0155 c -0.8331,0 -1.54905,0.19965 -2.12132,0.60927 v 0.002 c -0.5567,0.40272 -1.0013,0.96624 -1.33015,1.67586 -0.34277,0.73967 -0.49402,1.8292 -0.49402,3.29696 0,2.00695 0.32787,3.45978 1.05678,4.35736 0.71034,0.86884 1.69349,1.3162 2.87321,1.3162 1.1568,0 2.13472,-0.4299 2.86701,-1.26763 0.76573,-0.87512 1.10329,-2.36665 1.10329,-4.47259 0,-1.02737 -0.0796,-1.85712 -0.24805,-2.50166 -0.16707,-0.64524 -0.43508,-1.19542 -0.80822,-1.64072 -0.35855,-0.43953 -0.75411,-0.781 -1.18959,-1.0139 h -0.002 c -0.45235,-0.24743 -1.02366,-0.36122 -1.70687,-0.36122 z m 36.72077,0 c -1.17118,0 -2.21642,0.49703 -3.08044,1.44746 -0.88133,0.96483 -1.30432,2.38424 -1.30432,4.21835 0,1.78166 0.42815,3.17837 1.31413,4.14652 0.87969,0.95491 2.00226,1.44539 3.30886,1.44539 0.72427,0 1.39215,-0.12972 1.99419,-0.39274 l 0.15036,-0.0661 v -0.16433 -2.82774 l -0.39066,0.26562 c -0.57319,0.38914 -1.08484,0.56844 -1.53739,0.56844 -0.57062,0 -1.02129,-0.20007 -1.40972,-0.62735 v -0.002 c -0.35306,-0.39977 -0.57259,-1.20096 -0.57259,-2.41174 0,-1.15411 0.22302,-1.92621 0.59585,-2.33629 0.40399,-0.44441 0.8383,-0.64647 1.35339,-0.64647 0.18225,0 0.34756,0.0187 0.49816,0.0527 h 0.003 c 0.1016,0.0222 0.50093,0.18764 1.08005,0.48266 l 0.36327,0.18552 v -2.73627 l -0.1447,-0.0667 c -0.77488,-0.35326 -1.51601,-0.53486 -2.22051,-0.53486 z m 7.01921,0 c -0.83312,0 -1.54856,0.19965 -2.12082,0.60927 h -0.003 v 0.002 c -0.55668,0.40272 -0.99923,0.96624 -1.32808,1.67586 -0.34279,0.73967 -0.49403,1.8292 -0.49403,3.29696 0,2.00695 0.32581,3.45978 1.05471,4.35736 h 0.003 c 0.71032,0.86884 1.69143,1.3162 2.87115,1.3162 1.15679,0 2.13521,-0.4299 2.8675,-1.26763 0.76573,-0.87512 1.10331,-2.36665 1.10331,-4.47259 0,-1.02737 -0.0797,-1.85712 -0.24804,-2.50166 -0.16709,-0.64524 -0.43561,-1.19542 -0.80875,-1.64072 -0.35854,-0.43953 -0.75359,-0.781 -1.18907,-1.0139 h -0.003 c -0.45236,-0.24743 -1.02212,-0.36122 -1.70532,-0.36122 z m -38.56407,0.20723 v 10.84326 h 2.66599 v -5.55625 l 2.24224,5.55625 h 2.77502 v -0.24959 -10.59367 h -2.61482 v 5.48235 l -2.21124,-5.48235 z m -32.64452,0.0176 v 2.52542 h 2.05053 v 8.30079 h 2.72489 v -8.31835 h 2.0097 v -0.25012 -2.25774 z m 7.62279,0 v 0.24959 10.57662 h 2.75023 v -4.36563 h 1.56631 v 4.36563 h 2.74195 V 164.1662 h -2.74195 v 3.94292 h -1.58389 v -3.94292 z m 8.58398,0 v 10.82621 h 2.72283 V 171.002 l 1.40043,3.99045 h 2.82618 l -0.1328,-0.3421 -1.76579,-4.5098 c 0.51313,-0.31579 0.95971,-0.65167 1.2268,-1.04696 0.3086,-0.46291 0.45682,-1.04343 0.45682,-1.71876 0,-0.56823 -0.13611,-1.1194 -0.40049,-1.64228 -0.27081,-0.54614 -0.73797,-0.95221 -1.36116,-1.20148 -0.60035,-0.24245 -1.20845,-0.36483 -1.82056,-0.36483 z m 60.14259,0 v 0.24959 10.57662 h 2.75796 v -4.06849 h 0.40204 c 1.11016,0 2.00768,-0.27532 2.64843,-0.84956 0.64029,-0.5799 0.95911,-1.41059 0.95911,-2.42569 0,-1.12111 -0.2975,-2.0091 -0.91985,-2.60552 -0.62235,-0.59642 -1.53879,-0.87695 -2.7032,-0.87695 z m 7.58971,0 v 10.82621 h 5.65237 v -0.25011 -2.28359 h -2.93524 v -1.78283 h 2.24018 v -2.41794 h -2.24018 v -1.59991 h 2.61123 v -2.49183 z m -65.00947,2.15232 h 0.20515 c 0.35441,0 0.56813,0.0956 0.71882,0.27905 0.15069,0.18349 0.24805,0.49225 0.24805,0.95137 0,0.39777 -0.0885,0.70324 -0.24805,0.94102 -0.0871,0.12591 -0.484,0.20214 -0.92397,0.24805 z m 60.1524,0 h 0.26149 c 0.3402,0 0.5416,0.0936 0.68935,0.28474 0.14774,0.19113 0.24445,0.51658 0.24445,0.99425 0,0.42333 -0.0988,0.71539 -0.26977,0.91209 h -0.003 v 0.002 c -0.16589,0.19567 -0.38293,0.293 -0.72657,0.293 h -0.19688 z m -51.61339,0.25735 v 5.3e-4 c 0.26449,0 0.4618,0.0833 0.64647,0.27698 0.18835,0.19753 0.31821,0.45817 0.38293,0.80667 v 0.002 0.002 c 0.0695,0.34251 0.1111,0.98001 0.1111,1.87689 0,1.00143 -0.0487,1.70157 -0.12713,2.05466 -0.0803,0.35637 -0.21253,0.59343 -0.3824,0.74207 -0.18319,0.16029 -0.361,0.22893 -0.56482,0.22893 -0.27342,0 -0.4862,-0.0776 -0.67955,-0.23875 l -0.002,-0.002 c -0.18584,-0.16003 -0.30858,-0.3719 -0.37104,-0.66817 v -0.002 c -0.0611,-0.29727 -0.10129,-1.01815 -0.10129,-2.09755 v -0.66197 c 0,-0.87342 0.10914,-1.49411 0.28474,-1.83606 l 0.002,-0.002 c 0.1751,-0.34558 0.39961,-0.48266 0.80098,-0.48266 z m 43.73998,0 v 5.3e-4 c 0.26447,0 0.4618,0.0833 0.64645,0.27698 0.18836,0.19753 0.31615,0.45817 0.38087,0.80667 v 0.002 0.002 c 0.0695,0.34251 0.1116,0.98001 0.11163,1.87689 0,1.00143 -0.0487,1.70157 -0.12713,2.05466 -0.0803,0.35637 -0.21307,0.59343 -0.38294,0.74207 -0.18319,0.16029 -0.3584,0.22893 -0.56224,0.22893 -0.27342,0 -0.48826,-0.0776 -0.68161,-0.23875 l -0.003,-0.002 c -0.18584,-0.16003 -0.30856,-0.3719 -0.37103,-0.66817 v -0.002 c -0.0611,-0.29727 -0.10181,-1.01815 -0.10181,-2.09755 v -0.66197 c 0,-0.87342 0.11174,-1.49411 0.28734,-1.83606 v -0.002 c 0.1751,-0.34558 0.40116,-0.48266 0.80253,-0.48266 z"
       id="text4916"
       inkscape:connector-curvature="0" />
  </g>
</svg>
